HIERARCHY
ROOT Hips
{
    OFFSET   0.000000   0.000000   0.000000
    CHANNELS 6 Xposition Yposition Zposition Zrotation Xrotation Yrotation
    JOINT Chest
    {
        OFFSET   0.000000   8.007230   0.000000
        CHANNELS 3 Zrotation Xrotation Yrotation
        JOINT Chest2
        {
            OFFSET   0.000000  22.077100   0.000000
            CHANNELS 3 Zrotation Xrotation Yrotation
            JOINT Neck
            {
                OFFSET   0.000000  23.255100   0.000000
                CHANNELS 3 Zrotation Xrotation Yrotation
                JOINT Head
                {
                    OFFSET   0.000000  14.370100   1.956600
                    CHANNELS 3 Zrotation Xrotation Yrotation
                    End Site
                    {
                        OFFSET   0.000000  19.566000   0.000000
                    }
                }
            }
            JOINT LeftCollar
            {
                OFFSET   3.911900  19.017000  -0.467063
                CHANNELS 3 Zrotation Xrotation Yrotation
                JOINT LeftShoulder
                {
                    OFFSET  10.383700   0.000000   0.000000
                    CHANNELS 3 Zrotation Xrotation Yrotation
                    JOINT LeftElbow
                    {
                        OFFSET  26.662100   0.001193   0.000980
                        CHANNELS 3 Zrotation Xrotation Yrotation
                        JOINT LeftWrist
                        {
                            OFFSET  28.869000  -0.000059  -0.000082
                            CHANNELS 3 Zrotation Xrotation Yrotation
                            JOINT LeftFinger0
                            {
                                OFFSET   2.044650  -2.323450   3.252850
                                CHANNELS 3 Zrotation Xrotation Yrotation
                                JOINT LeftFinger01
                                {
                                    OFFSET   3.088130   0.000000   0.000000
                                    CHANNELS 3 Zrotation Xrotation Yrotation
                                    JOINT LeftFinger02
                                    {
                                        OFFSET   2.639460   0.000000   0.000000
                                        CHANNELS 3 Zrotation Xrotation Yrotation
                                        End Site
                                        {
                                            OFFSET   2.582190   0.000000   0.000000
                                        }
                                    }
                                }
                            }
                            JOINT LeftFinger1
                            {
                                OFFSET   8.364480   0.000000   3.252850
                                CHANNELS 3 Zrotation Xrotation Yrotation
                                JOINT LeftFinger11
                                {
                                    OFFSET   4.646930   0.000000   0.000000
                                    CHANNELS 3 Zrotation Xrotation Yrotation
                                    JOINT LeftFinger12
                                    {
                                        OFFSET   2.323470   0.000000   0.000000
                                        CHANNELS 3 Zrotation Xrotation Yrotation
                                        End Site
                                        {
                                            OFFSET   2.273050   0.000000   0.000000
                                        }
                                    }
                                }
                            }
                            JOINT LeftFinger2
                            {
                                OFFSET   8.364490   0.000016   1.078090
                                CHANNELS 3 Zrotation Xrotation Yrotation
                                JOINT LeftFinger21
                                {
                                    OFFSET   5.111610   0.000000   0.000000
                                    CHANNELS 3 Zrotation Xrotation Yrotation
                                    JOINT LeftFinger22
                                    {
                                        OFFSET   2.788150   0.000016   0.000000
                                        CHANNELS 3 Zrotation Xrotation Yrotation
                                        End Site
                                        {
                                            OFFSET   2.727660   0.000000   0.000000
                                        }
                                    }
                                }
                            }
                            JOINT LeftFinger3
                            {
                                OFFSET   7.899780   0.000015  -1.078090
                                CHANNELS 3 Zrotation Xrotation Yrotation
                                JOINT LeftFinger31
                                {
                                    OFFSET   4.646930   0.000000   0.000000
                                    CHANNELS 3 Zrotation Xrotation Yrotation
                                    JOINT LeftFinger32
                                    {
                                        OFFSET   2.323470   0.000000   0.000000
                                        CHANNELS 3 Zrotation Xrotation Yrotation
                                        End Site
                                        {
                                            OFFSET   2.273050   0.000000   0.000000
                                        }
                                    }
                                }
                            }
                            JOINT LeftFinger4
                            {
                                OFFSET   7.435090   0.000000  -3.252850
                                CHANNELS 3 Zrotation Xrotation Yrotation
                                JOINT LeftFinger41
                                {
                                    OFFSET   3.717550   0.000000   0.000000
                                    CHANNELS 3 Zrotation Xrotation Yrotation
                                    JOINT LeftFinger42
                                    {
                                        OFFSET   1.858770   0.000000   0.000000
                                        CHANNELS 3 Zrotation Xrotation Yrotation
                                        End Site
                                        {
                                            OFFSET   1.818440   0.000000   0.000000
                                        }
                                    }
                                }
                            }
                        }
                    }
                }
            }
            JOINT RightCollar
            {
                OFFSET  -3.911910  19.017000  -0.467062
                CHANNELS 3 Zrotation Xrotation Yrotation
                JOINT RightShoulder
                {
                    OFFSET -10.383700   0.000014   0.000000
                    CHANNELS 3 Zrotation Xrotation Yrotation
                    JOINT RightElbow
                    {
                        OFFSET -26.662100   0.001225   0.001091
                        CHANNELS 3 Zrotation Xrotation Yrotation
                        JOINT RightWrist
                        {
                            OFFSET -28.869000  -0.000020  -0.000085
                            CHANNELS 3 Zrotation Xrotation Yrotation
                            JOINT RightFinger0
                            {
                                OFFSET  -2.044650  -2.323490   3.252850
                                CHANNELS 3 Zrotation Xrotation Yrotation
                                JOINT RightFinger01
                                {
                                    OFFSET  -3.088130   0.000000   0.000000
                                    CHANNELS 3 Zrotation Xrotation Yrotation
                                    JOINT RightFinger02
                                    {
                                        OFFSET  -2.639460   0.000000   0.000000
                                        CHANNELS 3 Zrotation Xrotation Yrotation
                                        End Site
                                        {
                                            OFFSET  -2.582190   0.000000   0.000000
                                        }
                                    }
                                }
                            }
                            JOINT RightFinger1
                            {
                                OFFSET  -8.364480   0.000000   3.252850
                                CHANNELS 3 Zrotation Xrotation Yrotation
                                JOINT RightFinger11
                                {
                                    OFFSET  -4.646930   0.000000   0.000000
                                    CHANNELS 3 Zrotation Xrotation Yrotation
                                    JOINT RightFinger12
                                    {
                                        OFFSET  -2.323470   0.000000   0.000000
                                        CHANNELS 3 Zrotation Xrotation Yrotation
                                        End Site
                                        {
                                            OFFSET  -2.273050   0.000000   0.000000
                                        }
                                    }
                                }
                            }
                            JOINT RightFinger2
                            {
                                OFFSET  -8.364480   0.000000   1.078090
                                CHANNELS 3 Zrotation Xrotation Yrotation
                                JOINT RightFinger21
                                {
                                    OFFSET  -5.111620   0.000000   0.000000
                                    CHANNELS 3 Zrotation Xrotation Yrotation
                                    JOINT RightFinger22
                                    {
                                        OFFSET  -2.788160   0.000000   0.000000
                                        CHANNELS 3 Zrotation Xrotation Yrotation
                                        End Site
                                        {
                                            OFFSET  -2.727660   0.000000   0.000000
                                        }
                                    }
                                }
                            }
                            JOINT RightFinger3
                            {
                                OFFSET  -7.899780   0.000000  -1.078090
                                CHANNELS 3 Zrotation Xrotation Yrotation
                                JOINT RightFinger31
                                {
                                    OFFSET  -4.646930   0.000000   0.000000
                                    CHANNELS 3 Zrotation Xrotation Yrotation
                                    JOINT RightFinger32
                                    {
                                        OFFSET  -2.323470   0.000000   0.000000
                                        CHANNELS 3 Zrotation Xrotation Yrotation
                                        End Site
                                        {
                                            OFFSET  -2.273050   0.000000   0.000000
                                        }
                                    }
                                }
                            }
                            JOINT RightFinger4
                            {
                                OFFSET  -7.435090   0.000000  -3.252850
                                CHANNELS 3 Zrotation Xrotation Yrotation
                                JOINT RightFinger41
                                {
                                    OFFSET  -3.717550   0.000000   0.000000
                                    CHANNELS 3 Zrotation Xrotation Yrotation
                                    JOINT RightFinger42
                                    {
                                        OFFSET  -1.858760   0.000000   0.000000
                                        CHANNELS 3 Zrotation Xrotation Yrotation
                                        End Site
                                        {
                                            OFFSET  -1.818440   0.000000   0.000000
                                        }
                                    }
                                }
                            }
                        }
                    }
                }
            }
        }
    }
    JOINT LeftHip
    {
        OFFSET   9.783030   0.000000   0.000000
        CHANNELS 3 Zrotation Xrotation Yrotation
        JOINT LeftKnee
        {
            OFFSET   0.000063 -41.789100   0.000608
            CHANNELS 3 Zrotation Xrotation Yrotation
            JOINT LeftAnkle
            {
                OFFSET   0.000048 -41.133200  -0.000184
                CHANNELS 3 Zrotation Xrotation Yrotation
                JOINT LeftToe
                {
                    OFFSET   0.000000  -6.358960  14.674500
                    CHANNELS 3 Zrotation Xrotation Yrotation
                    End Site
                    {
                        OFFSET   0.000000   0.000000   3.913200
                    }
                }
            }
        }
    }
    JOINT RightHip
    {
        OFFSET  -9.783030   0.000000   0.000000
        CHANNELS 3 Zrotation Xrotation Yrotation
        JOINT RightKnee
        {
            OFFSET   0.000071 -41.789100   0.001239
            CHANNELS 3 Zrotation Xrotation Yrotation
            JOINT RightAnkle
            {
                OFFSET   0.000037 -41.133200  -0.000166
                CHANNELS 3 Zrotation Xrotation Yrotation
                JOINT RightToe
                {
                    OFFSET   0.000000  -6.358960  14.674500
                    CHANNELS 3 Zrotation Xrotation Yrotation
                    End Site
                    {
                        OFFSET   0.000000   0.000000   3.913200
                    }
                }
            }
        }
    }
}
MOTION
Frames: 4
Frame Time:   0.016667
 -0.142211  89.994100   1.095070  -1.494710 -11.913800  -4.660450   0.785548   7.079180  -1.636050   1.797040  14.132000  -3.410040   5.292090   4.754080  -0.439838   8.857380   9.393480  10.973200  -6.991500  -4.804690   1.499560 -66.925100  26.902800 -39.142300  12.941100 -14.168400 -79.993200  55.054200  12.320300   3.411990  77.419900  50.294200 -110.931000 -13.905700   0.000000   0.000103  -1.952870  -0.000796  -0.001220 -53.195400  -1.603410   1.201190 -43.537700  -0.001689  -0.000875 -32.653300   0.002049  -0.000591 -58.966700  -2.741590   1.648100 -59.006100   0.001784  -0.001366 -44.254600   0.002364  -0.003284 -53.589100  -6.299740   4.626900 -53.991800   0.001841   0.000464 -40.462800   0.001016  -0.000063 -60.130800  -8.719790   4.976640 -90.765400  -0.001385  -0.010878 -60.449800  -0.007280  -0.000970  10.338900  -2.180140  12.515400  60.855600  19.939100  34.349300 -11.011500 -15.220900  79.857900 -75.153700  -0.257152  10.900000 -42.397500  42.138900  86.221000  26.003200  -0.000266  -0.001787   8.001580  -0.010667  -0.005845  46.040200  -2.752900  -2.651460  37.721700   0.003235   0.010363  27.643700   0.000000   0.006979  39.438900  -3.569370  -4.325930  54.311700  -0.001093   0.002057  37.156400   0.002704   0.002642  51.144600  -6.221460  -4.988270  53.938600   0.002816   0.005294  39.909100   0.002455  -0.002664  64.740200  -9.058480  -4.248130  97.615500   0.006022  -0.011066  65.011800  -0.001920  -0.003830  -0.260698  13.115000   2.591000   0.252550   1.409850  13.493700  -5.099470  -4.506900   5.034620   0.000000   0.000000   0.000000   2.595600  11.761800 -10.105200  -0.524595   3.762410  -5.658280 -10.995700  -0.394612   1.134010  -0.000000   0.000000   0.000000
 -0.152528  90.002100   1.061990  -1.435830 -11.880500  -4.520450   0.759443   7.040460  -1.623180   1.741210  14.055600  -3.379710   5.220170   4.707850  -0.429553   8.733350   9.308820  10.949400  -7.035000  -4.722040   1.360210 -67.000400  26.548600 -38.847800  13.125400 -13.862000 -80.041700  54.464300  12.095800   3.366640  77.225100  50.322600 -110.906000 -14.036100  -0.001821  -0.001110  -2.018080  -0.001802  -0.001069 -53.426600  -1.071790   0.799706 -43.720400  -0.001721  -0.000556 -32.790300   0.002045  -0.000508 -59.093300  -2.723220   1.628730 -59.132100   0.001762  -0.001149 -44.349100   0.002284  -0.003504 -53.576500  -6.313760   4.643540 -54.002100   0.001734   0.000513 -40.464900   0.001023  -0.000241 -59.922500  -8.706160   5.010740 -90.456600  -0.003680  -0.011083 -60.244200  -0.007575  -0.002286  10.323100  -2.038630  12.481900  61.084200  19.679500  34.102000 -11.218800 -14.830000  79.828900 -74.855700   0.138811  10.841400 -42.132100  41.815700  85.826700  26.277900  -0.001343  -0.002097   8.138910  -0.011262  -0.006400  46.434700  -2.699990  -2.565860  38.042300   0.003245   0.010790  27.953900   0.000000   0.007283  40.542200  -3.570430  -4.163870  54.369000  -0.001209   0.001984  37.489200   0.002750   0.002692  52.513400  -6.260310  -4.780290  54.000900   0.003056   0.005499  40.237100   0.002493  -0.002754  65.220200  -9.090650  -4.170380  98.328100   0.006045  -0.011480  65.486500  -0.002170  -0.003848  -0.277249  12.925000   2.558070   0.269388   1.521340  13.432300  -5.113310  -4.474270   4.996280  -0.000000   0.000000   0.000000   2.564530  11.761400 -10.100100  -0.492530   3.670440  -5.787320 -11.005700  -0.360494   1.140910   0.000000   0.000000   0.000000
 -0.164443  90.011400   1.027230  -1.376480 -11.833900  -4.387370   0.734612   6.998390  -1.602270   1.686880  13.972700  -3.333270   5.137710   4.647270  -0.417263   8.591980   9.196720  10.899300  -7.093820  -4.671160   1.162360 -67.138100  26.037800 -38.376600  13.354400 -13.351300 -80.117500  53.694800  11.735500   3.333990  77.111400  50.335400 -110.890000 -14.275800  -0.011771  -0.002274  -2.137900  -0.005788  -0.000887 -53.710000  -0.399034   0.300994 -43.949300  -0.001759  -0.000263 -32.962000   0.002043  -0.000444 -59.250500  -2.700600   1.605130 -59.288500   0.001743  -0.000972 -44.466400   0.002217  -0.003748 -53.573300  -6.326970   4.650950 -54.014900   0.001611   0.000534 -40.472100   0.001033  -0.000437 -59.685500  -8.659970   5.038830 -90.102200  -0.008289  -0.011280 -60.008100  -0.007834  -0.005302  10.319900  -1.927080  12.439300  61.397300  19.351200  33.724300 -11.503500 -14.265800  79.776200 -74.248500   0.646226  10.763000 -41.953900  41.592800  85.562400  26.442600  -0.004963  -0.002410   8.221240  -0.011831  -0.006920  46.916600  -2.634500  -2.462570  38.433900   0.003252   0.011203  28.334400   0.000000   0.007584  41.852600  -3.571310  -3.974930  54.420200  -0.001328   0.001906  37.869000   0.002791   0.002738  53.863900  -6.280870  -4.566080  54.308000   0.003491   0.005710  40.692400   0.002530  -0.002819  65.812700  -9.130390  -4.074600  99.207600   0.006072  -0.011714  66.072200  -0.002393  -0.003862  -0.296934  12.708900   2.525290   0.293973   1.681830  13.376700  -5.126520  -4.444270   4.959730   0.000000   0.000000   0.000000   2.533910  11.760500 -10.096400  -0.459682   3.577680  -5.909660 -11.016900  -0.325194   1.152510   0.000000   0.000000   0.000000
 -0.180800  90.021900   0.988317  -1.314560 -11.765200  -4.259020   0.710768   6.955250  -1.567710   1.632840  13.887700  -3.259330   5.042830   4.565990  -0.402276   8.428190   9.044500  10.817500  -7.187150  -4.698430   0.869392 -67.333600  25.293100 -37.615900  13.655300 -12.512600 -80.288700  52.820700  11.309500   3.265120  78.082000  50.227600 -111.011000 -14.698300  -0.040790   0.003951  -2.349180  -0.020343  -0.000660 -54.072700   0.329894  -0.220092 -44.245900  -0.001806  -0.000005 -33.184400   0.002033  -0.000409 -59.457500  -2.671650   1.575460 -59.491900   0.001729  -0.000819 -44.620700   0.002151  -0.004023 -53.635100  -6.238390   4.558530 -54.016500   0.001454   0.000530 -40.490500   0.001041  -0.000643 -59.498800  -8.615050   5.051140 -89.822100  -0.017550  -0.011507 -59.821600  -0.008055  -0.011498  10.355400  -1.902250  12.364000  61.871800  18.928400  33.109200 -11.902000 -13.474400  79.747100 -73.064300   1.280670  10.741000 -42.106900  41.768600  85.790600  26.381500  -0.015994  -0.002711   8.190750  -0.012495  -0.007404  47.473300  -2.558020  -2.345760  38.886200   0.003257   0.011606  28.776600   0.000000   0.007870  43.308300  -3.567540  -3.772550  54.448800  -0.001459   0.001824  38.264800   0.002828   0.002772  54.879600  -6.263920  -4.387130  55.043300   0.004388   0.005931  41.300800   0.002578  -0.002853  66.469600  -9.175070  -3.969190 100.183000   0.006107  -0.010726  66.721600  -0.002580  -0.003865  -0.313542  12.547900   2.485310   0.309296   1.755570  13.326800  -5.140620  -4.419550   4.928330   0.000000   0.000000  -0.000000   2.511010  11.730700 -10.099500  -0.436788   3.490590  -6.026200 -11.029800  -0.292629   1.167140   0.000000   0.000000   0.000000
